<?xml version="1.0" encoding="UTF-8"?>
<svg width="21px" height="21px" viewBox="0 0 21 21" version="1.1" xmlns="http://www.w3.org/2000/svg" xmlns:xlink="http://www.w3.org/1999/xlink">
    <title>Group 9</title>
    <g id="Symbols" stroke="none" stroke-width="1" fill="none" fill-rule="evenodd">
        <g id="Group-9" fill="#FFC1BE">
            <path d="M18,0 C19.6568542,-3.04359188e-16 21,1.34314575 21,3 L21,18 C21,19.6568542 19.6568542,21 18,21 L3,21 C1.34314575,21 2.02906125e-16,19.6568542 0,18 L0,3 C-2.02906125e-16,1.34314575 1.34314575,3.04359188e-16 3,0 L18,0 Z M13.9549462,3 L11.2602987,3 L11.2602987,13.9207325 C11.260321,14.9291863 10.6254335,15.8234445 9.68659226,16.1373457 C8.74775099,16.4512468 7.71760869,16.1136904 7.13316101,15.3006389 C6.54871333,14.4875874 6.5423409,13.3832015 7.11736555,12.5631788 C7.69239021,11.743156 8.71856569,11.3932361 9.66096419,11.6958263 L9.66096419,11.6958263 L9.66096419,8.88609291 C7.60504581,8.59516821 5.58809149,9.63705916 4.60011587,11.5003574 C3.61214024,13.3636556 3.8605646,15.6571696 5.22345076,17.2551364 C6.58633692,18.8531032 8.7775527,19.4200364 10.7215479,18.677659 C12.6655431,17.9352816 13.9541841,16.0394525 13.9549462,13.9207325 L13.9549462,13.9207325 L13.9549462,8.33439868 C15.0511497,9.13538492 16.3661875,9.56454574 17.7142857,9.56125411 L17.7142857,9.56125411 L17.7142857,6.82997697 C16.9847246,6.83013347 16.2712375,6.61120351 15.6626791,6.20045166 C14.7981814,5.63176634 14.2011429,4.72488577 14.0119013,3.69297796 C13.9721398,3.46425675 13.9530745,3.23228672 13.9549462,3 L13.9549462,3 Z" id="Combined-Shape"></path>
        </g>
    </g>
</svg>