<svg width="100%" height="100%" clip-rule="evenodd" fill-rule="evenodd" image-rendering="optimizeQuality" shape-rendering="geometricPrecision" text-rendering="geometricPrecision" viewBox="0 0 7170 1295" xmlns="http://www.w3.org/2000/svg">
  <path d="M3237 827V160h-162l-71 485-68-485h-163v667h93V313l79 514h107l78-507v507h107zM311-1h-5c-8 1-15 1-23 3-9 1-17 5-23 11-35 31-72 58-111 81-42 25-86 44-131 62-11 4-17 12-18 24v35c0 12 6 19 17 23 8 2 16 3 24 5 54 16 85 50 86 105 1 25 0 50 0 75 1 103 0 205 0 308h2v368c0 22 2 43 8 65 8 31 23 58 49 80 36 30 80 45 128 50 59 5 116 0 173-11 42-8 82-20 121-36 87-37 160-89 217-162 35-46 61-96 76-150 9-28 14-57 16-86 6-54 3-108-13-160-20-61-55-112-111-150-42-29-89-44-139-52-30-4-61-4-92-3-43 3-84 11-122 29-33 16-65 34-92 58-1 1-2 4-5 3-2-1-1-4-1-6v-4l2-302v-51c1-63 1-127 1-190 0-10-5-16-14-19-7-2-14-2-20-3zm2863 1269h48v-72h71v-37h-71v-45h80l9-39h-137v193zm198-153h74v153h48v-153h73v-40h-195v40zm2338 70l-103-110h-46v193h47l-1-126 120 127h30v-194h-47v110zm-583-485c0 25-14 38-41 38h-54V531h50c30 0 45 13 45 42v127zm-95-451h52c27 0 40 13 40 38v115c0 28-14 42-44 42h-48V249zm140 235c39-13 61-43 61-102v-98c0-83-44-124-133-124h-177v667h179c89 0 133-41 133-124V580c0-54-21-83-63-96zm198 748c-35 0-61-27-61-61 0-33 26-60 61-60 34 0 62 27 62 61s-28 60-62 60zm1-161c-64 0-111 45-111 101s46 100 110 100c63 0 110-44 110-101 0-55-46-100-109-100zm-2418 122l33-73 32 73h-65zm9-119l-91 194h50l17-40h95l17 40h51l-88-194h-51zm-586-442l44-338 45 338h-89zm-24-473l-102 668h101l13-105h113l15 105h108l-103-668h-145zm364 1006h-21v-54h22c20 0 34 10 34 27 0 16-14 27-35 27zm82-30c0-39-30-60-78-60h-72v193h48v-70h12l61 70h57l-69-77c25-11 41-31 41-56zm1793 72l-60-132h-52l93 196h35l96-196h-51l-61 132zm-274 25c-35 0-61-27-61-61 0-33 26-60 61-60 34 0 62 27 62 61s-28 60-62 60zm1-161c-64 0-111 45-111 101s46 100 110 100c63 0 110-44 110-101 0-55-46-100-109-100zm459 197h47v-193h-47v193zm-959-97h-20v-59h21c24 0 37 11 37 28 0 20-14 31-38 31zm2-96h-69v193h48v-61h21c49 0 83-25 83-67 0-43-33-65-83-65zm-187-375c0 25-13 38-41 38h-54V531h50c31 0 45 13 45 42v127zm-95-451h52c28 0 41 13 41 38v115c0 28-14 42-45 42h-48V249zm141 235c39-13 60-43 60-102v-98c0-83-44-124-132-124h-177v667h178c89 0 133-41 133-124V580c0-54-20-83-62-96zm369 681h-22v-54h23c20 0 34 10 34 27 0 16-14 27-35 27zm82-30c0-39-30-60-78-60h-73v193h48v-70h13l61 70h57l-69-77c25-11 41-31 41-56zm1001 133h47v-193h-47v193zM4039 160h-109v667h230v-92h-121V160zM1613 1193l33-73 32 73h-65zm9-119l-91 194h50l17-40h95l17 40h51l-89-194h-50zM726 963c-16 80-64 141-144 177-43 19-89 27-136 20-44-6-84-30-97-80-3-11-4-23-4-34V730c0-7 2-12 7-16 28-25 61-40 98-47 70-12 133 1 190 41 36 25 64 62 78 105 16 49 19 100 8 150zm685 187h-98v-75h-47v193h47v-77h98v77h48v-193h-48v75zm4511 2c-28-10-36-16-36-27 0-9 9-16 25-16 19 0 42 9 59 19h1v-42c-15-8-34-14-60-14-44 0-71 23-71 57 0 33 23 47 57 59 28 10 37 16 37 27 0 12-10 19-27 19-22 0-51-13-72-29l-1 1 7 47c20 12 42 19 65 18 44 0 75-22 75-59 0-31-21-46-59-60zm640-722c0 27-14 41-45 41h-49V250h53c28 0 41 13 41 38v142zm47 83c40-16 62-44 62-103V284c0-83-44-124-133-124h-179v667h109V559h49c32 0 46 14 46 43v225h109V600c0-50-18-76-63-87zM814 53C476 39 505 328 505 328 814 369 814 53 814 53zm3769 682h-136V533h128v-92h-128V252h133v-92h-243v667h246v-92zm2482-575l-65 284-61-284h-113l118 440v227h109V590l117-430h-105zM1969 430c0 27-14 41-45 41h-49V250h53c28 0 41 13 41 38v142zm47 83c40-16 62-44 62-103V284c0-83-44-124-132-124h-180v667h109V559h49c32 0 46 14 46 43v225h109V600c0-50-18-76-63-87zm180 716h-27v-115h27c43 0 70 21 70 58 0 36-28 57-70 57zm0-154h-75v193h75c73 0 119-39 119-97 0-59-43-96-119-96zm3473-340h-136V533h128v-92h-128V252h134v-92h-243v667h245v-92zm-3173 496c-33 0-62-23-62-60 0-33 27-58 63-58 25 0 47 12 64 28h1v-47c-16-12-38-22-69-22-61 0-108 43-108 100 0 60 47 99 105 99 25 1 49-7 69-20l6-47v-1c-19 16-42 28-69 28zM1374 738V531h50c31 0 45 13 45 42v127c0 25-13 38-41 38h-54zm0-489h52c28 0 41 13 41 38v115c0 28-14 42-45 42h-48V249zm203 454V580c0-54-20-83-62-96 39-13 60-43 60-102v-98c0-83-44-124-133-124h-176v667h178c89 0 133-41 133-124zm3414 449c-28-10-36-16-36-27 0-9 8-16 24-16 20 0 43 9 60 19v-42c-14-8-34-14-59-14-45 0-72 23-72 57 0 33 24 47 58 59 28 10 37 16 37 27 0 12-10 19-28 19-22 0-50-13-72-29v1l7 47c19 12 42 19 65 18 44 0 74-22 74-59 0-31-20-46-58-60zm-3007 33l-104-110h-46v193h47v-126l119 127h30v-194h-47l1 110zm4074-755c0 27-15 41-45 41h-49V250h53c27 0 41 13 41 38v142zm47 83c39-16 62-44 62-103V284c0-83-44-124-133-124h-180v667h110V559h49c31 0 46 14 46 43v225h109V600c0-50-19-76-63-87z" fill="#ffc4c1"/>
</svg>
